<?xml version="1.0" encoding="UTF-8"?>
<svg id="Layer_1" data-name="Layer 1" xmlns="http://www.w3.org/2000/svg" viewBox="0 0 2809.44 824.11">
  <defs>
    <style>
      .cls-1 {
        fill: #fff;
      }
    </style>
  </defs>
  <path class="cls-1" d="M810.23,498.23c.36-7.85,3.57-14.17,9.78-19.29,8.34-6.75,19.07-12.21,31.89-16.21,13.21-4.12,26.83-7.9,40.46-11.21,11.01-2.54,21.68-5.53,31.72-8.88,10.24-3.41,19.89-7.75,28.68-12.89,8.91-5.22,16.85-11.84,23.6-19.67,6.81-7.91,12.25-18.09,16.17-30.31,4.78-15.65,5.44-31.64,1.96-47.52-3.5-15.95-11.05-29.81-22.42-41.2-7.84-7.84-16.92-14.04-26.97-18.41-9.96-4.32-20.47-7.17-31.23-8.46-10.72-1.29-21.7-1.29-32.63,0-10.82,1.27-21.29,3.43-31.15,6.43-19.25,6-36.81,15.53-52.19,28.35-15.36,12.8-28.13,28.17-37.9,45.59-7.25,12.36-12.87,25.66-16.72,39.54-3.84,13.88-5.79,27.85-5.79,41.53v6.97c.42,22.55,4.74,44.03,12.84,63.86,8.09,19.81,19.34,37.33,33.43,52.07,14.1,14.74,30.77,26.54,49.54,35.07,18.82,8.56,39.22,12.91,60.63,12.91,10.74,0,21.41-1.31,31.64-3.87l8.15-1.88.33-.09c13.19-4.25,25.06-9.43,35.34-15.43,6.62-3.97,11.49-7.56,14.89-10.96,3.3-3.3,5.89-6.35,7.72-9.08l.26-.44c1.53-3.06,2.31-6.21,2.31-9.34v-27.73l-7.96,26.57c-1.01,3.38-2.69,6.3-4.99,8.69-1.28.87-2.39,1.68-3.38,2.48-.94.75-2,1.52-3.15,2.29l-.62.51c-1.93,1.93-2.63,2.33-2.69,2.37l-.28.15c-2.21,1.32-4.22,2.67-5.99,4-1.39,1.04-2.98,1.92-4.71,2.61l-.54.26c-4.79,2.8-9.42,5.02-13.88,6.63-14.07,5.63-29.18,8.49-44.89,8.49s-29.94-3.54-43.34-10.54l-.6-.6-.51-.28c-7.95-4.36-15.83-10.74-23.43-18.95-7.57-8.16-13.85-18.2-18.71-29.95-3.48-7.74-5.05-15.87-4.66-24.16h0ZM960.41,323.97c3.57,8.92,5.58,18.49,5.98,28.28v1.25c0,13.9-3.43,27.62-10.21,40.78-6.75,13.1-16.18,23.54-28.08,31.06-7.96,5.17-16.63,9-25.77,11.39-9.6,2.5-19.25,4.81-28.69,6.86-9.67,2.11-19.36,4.56-28.8,7.28-9.8,2.84-19.18,7.36-27.68,13.31-3.64,2.28-7.98,5.95-13.26,11.23-2.17,2.17-4.03,4.53-5.58,7.07-.23-1.65-.46-3.33-.68-5.05-.42-3.13-.86-5.85-1.25-7.84-.83-6.15-1.45-12.49-1.85-18.85-.42-6.47-.84-13.25-1.25-20.12,0-14.79,1.14-29.78,3.4-44.54,2.22-14.59,6.44-28.79,12.51-42.14,4.05-8.52,8.99-16.85,14.68-24.77,5.62-7.83,12.15-14.97,19.42-21.24,7.17-6.17,15.26-11.23,24.04-15.03,8.64-3.73,17.8-5.62,27.23-5.62,10.2,0,19.74,2.08,28.35,6.19,8.67,4.14,16.27,9.74,22.58,16.63,6.33,6.94,11.35,14.96,14.9,23.85Z"/>
  <path class="cls-1" d="M1514.54,531.09c5.68-10.05,9.23-21.12,10.54-32.91l.5-4.52h-23.35l-.29,3.75c-.39,5.04-1.37,9.74-2.9,13.97-1.61,4.41-3.63,8.86-5.98,13.16-6.04,10.47-13.71,20.19-22.8,28.88-8.9,8.51-19.23,14.62-30.78,18.21-3.63,1.21-9.49,2.65-17.4,4.26-7.88,1.62-16.5,2.54-25.61,2.74-9.05.21-18.13-.61-27-2.43-8.36-1.71-15.48-5.45-21.14-11.12-5.89-5.89-10.56-12.75-13.88-20.39-3.31-7.59-4.99-15.59-4.99-23.77v-218.55h94.39c10.42,0,19.69,2.62,27.55,7.8,7.7,5.07,12.15,11.09,13.62,18.41l8.05-.8v-62.71l-8.05-.8c-1.46,7.32-5.92,13.34-13.62,18.41-7.85,5.17-17.12,7.8-27.55,7.8h-94.39v-99.4c0-9.14,2.77-16.9,8.47-23.73,5.68-6.82,12.68-10.87,21.4-12.39l-.7-8.07h-114.76v.56c-6.59-.25-13.14.44-19.52,2.08-6.93,1.79-13.38,4.73-19.22,8.78-12.39,8.86-21.03,20.96-25.67,35.97-4.56,14.76-5.76,29.3-3.57,43.25,1.3,7.82,3.5,15.41,6.54,22.55,1.34,3.16,2.89,6.23,4.66,9.19-2.4-.77-5.04-1.59-7.96-2.46l-8.78-2.51-.4-.09c-11.91-2.12-23.33-3.2-33.95-3.2-14.04,0-28.49,1.72-42.95,5.13-14.69,3.46-28.06,9.6-39.76,18.26-10.45,7.84-19.05,17.76-25.6,29.55-6.56,12.25-9.89,26.61-9.89,42.68,0,9.24,1.77,18.78,5.26,28.36l.15.35c4.28,9,9.09,16.86,14.31,23.39,5.62,6.92,12.42,13.08,20.22,18.3,3.94,3.06,8.06,5.61,12.24,7.58,4.11,1.95,8.3,3.78,12.54,5.46,3.57,1.34,6.8,2.48,9.86,3.5l8.63,2.87c2.94.85,5.58,1.58,7.89,2.21,2.19.6,4.55,1.32,6.99,2.13l7.52,2.51c2.53.85,5.26,1.69,8.32,2.56,2.88.83,5.94,1.85,9.11,3.04,3.35,1.26,6.99,2.54,10.8,3.81,3.57,1.19,7.04,2.52,10.31,3.94,3.23,1.42,6.54,2.97,9.95,4.66,5.83,2.72,11.37,6.27,16.46,10.54,4.62,5.04,8.12,10.11,10.35,14.91,2.71,6.61,4.08,13.26,4.08,19.78,0,7.04-1.1,14.01-3.25,20.7-2.11,6.5-5.71,12.53-10.71,17.93-5.07,5.46-11.22,10.02-18.27,13.55-7.21,3.6-14.82,6.34-22.61,8.14-7.81,1.8-16.05,2.72-24.48,2.72s-16.76-.62-24.45-1.83l-.63-.05c-.33,0-1.74-.08-6.02-1.16-3.67-.81-7.4-1.74-11.08-2.77-3.57-.98-7.04-2.11-10.31-3.34l-.32-.1c-2.65-.75-5.16-1.72-7.45-2.86l-7.53-3.76c-5.54-2.77-10.99-6.3-16.19-10.5-5.03-4.06-8.93-8.43-11.58-12.99l-7.09,3.99c2.65,4.86,6,9.55,10.1,14.09,3.46,3.47,7.92,7.28,13.27,11.34,5.52,4.21,12.53,7.88,20.7,10.88,2.15.87,4.87,1.85,8.07,2.91,3.15,1.05,6.78,2.19,11.15,3.5l8.78,2.51.4.09c11.85,2.12,23.27,3.2,33.95,3.2,18.25,0,35.89-2.15,52.41-6.39,15.52-3.88,28.89-10.03,39.55-18.14,10.92-7.43,19.99-17.38,26.97-29.59,6.17-11.02,9.3-24.35,9.3-39.61,0-21.34-6.22-39.73-18.49-54.63-12.16-14.76-29.25-25.74-51.07-32.71-3.15-.78-6.04-1.68-8.62-2.68-2.82-1.07-5.77-2.06-8.55-2.85-6.07-2.16-11.3-3.83-15.93-5.1-2.95-.84-5.56-1.64-7.98-2.46-2.55-.85-5.33-1.7-8.32-2.56-2.78-.79-5.51-1.7-8.13-2.71l-1.35-.51c-2.37-.9-4.96-1.89-7.79-2.95-15.31-5.63-27.94-12.95-37.47-21.7-9.28-8.9-13.8-20.04-13.8-34.06,0-9.35,1.75-17.6,5.3-24.71,2.65-6.07,6.5-11.27,11.44-15.46l.25-.23c4.18-4.19,9.21-7.47,14.94-9.76,6.07-2.43,12.24-4.48,18.17-6.07,12.93-2.83,26.88-3.64,41.2-2.46,5.81.84,11.51,1.87,16.94,3.08,5.4,1.2,10.79,2.83,16.04,4.84l.33.11c2.54.73,5.76,2.36,9.57,4.83,4.31,2.81,8.59,5.74,12.72,8.68,4.2,3,8.34,6.21,12.28,9.52,3.88,3.28,6.85,5.94,8.84,7.93l5.86-5.64c-5.01-5.42-9.6-10.43-13.61-14.83-3.44-4.29-6.67-8.05-9.6-11.21-2.97-3.18-4.67-4.97-5.11-5.43-10.19-10.18-16.45-22.81-18.61-37.53-2.18-14.9-.68-29.07,4.4-41.97,3.18-7.16,7.22-13.82,12-19.8,4.58-5.72,10.4-10.18,17.36-13.28,5.66-2.64,11.55-3.89,17.59-3.7,5.78.19,11.09,1.7,15.78,4.48,3.25,3.33,5.93,7.16,7.96,11.38,2.03,4.25,3.05,9.04,3.05,14.24v293.48c0,18.64,4.52,35.69,13.42,50.68,8.87,14.94,21.26,27.32,36.86,36.86,14.52,8.55,30.45,14.62,47.35,18.04,9.63,1.95,19.31,2.94,28.98,2.94,7.29,0,14.58-.56,21.84-1.68,2-.39,3.81-.69,5.36-.89,1.93-.24,4.07-.82,6.36-1.71,11.03-2.57,21.78-6.45,31.96-11.54,10.32-5.16,19.82-11.71,28.22-19.46,8.42-7.77,15.54-16.76,21.16-26.7Z"/>
  <path class="cls-1" d="M1817.6,582.88l-.21-.23c-2.12-2.12-4.03-5.25-5.69-9.32h0c-1.67-4.08-2.52-10.11-2.52-17.9v-186.87c0-9.46-1.09-18.85-3.25-27.91-2.18-9.13-5.7-17.93-10.55-26.3-9.53-15.15-22.04-27.11-37.21-35.56-15.05-8.38-31.19-13.5-48.03-15.24-19.78-1.71-39.39,1.23-58.29,8.74-16.76,6.67-30.67,17.23-41.46,31.44v-112.01c0-8.72,2.77-16.27,8.46-23.11,5.69-6.82,12.69-10.88,21.4-12.39l-.7-8.07h-114.76l-.7,8.07c8.72,1.52,15.72,5.57,21.41,12.39,5.69,6.84,8.46,14.4,8.46,23.11v359.32c0,9.12-2.76,16.77-8.43,23.38-5.73,6.69-12.8,10.87-21.61,12.78l-37.02,8.04h190.56l-37.05-8.04c-8.81-1.91-15.87-6.09-21.6-12.78-5.67-6.61-8.43-14.25-8.43-23.38v-223.58c3.12-6.48,6.83-12.48,11.02-17.82,12.74-15.92,29.5-26.41,49.67-31.16,8.14-1.62,16.49-2.65,24.8-3.06,8.14-.38,16.28.41,24.25,2.4,9.54,2.29,17.16,6.7,22.62,13.11,5.72,6.71,10.22,14.52,13.38,23.21,3.21,8.84,5.35,18.32,6.36,28.18,1.02,10.14,1.55,19.6,1.55,28.2.83,42.39.83,85.8,0,129.1v36.37c0,16.08,5.77,30.12,17.15,41.73,11.4,11.63,25.56,17.52,42.1,17.52h33.23l-32.26-8.01c-2.53-.63-4.71-2.05-6.67-4.34Z"/>
  <path class="cls-1" d="M2422.94,372.62h4.52v-4.07c0-9.46-1.09-18.85-3.25-27.91-2.18-9.13-5.7-17.93-10.55-26.3-9.53-15.15-22.04-27.11-37.21-35.56-15.04-8.38-31.18-13.5-47.96-15.23h-.07c-19.76-1.71-39.39,1.22-58.29,8.73-19.09,7.59-34.49,20.03-45.88,37.12-.85,1.41-1.67,2.85-2.48,4.33v-6.63c0-11.03-2.89-19.77-8.6-25.96-5.39-5.83-11.34-10.17-17.75-12.92-7.52-3.09-16.21-4.88-26-5.32h-70.96l36.86,8.04c8.79,1.92,15.85,6.19,21.57,13.05,5.69,6.84,8.46,14.4,8.46,23.11v243.94c0,9.12-2.76,16.77-8.43,23.38-5.73,6.69-12.8,10.87-21.61,12.78l-3.52.76-3.53-.76c-8.81-1.91-15.87-6.09-21.6-12.78-5.67-6.61-8.43-14.26-8.43-23.38v-188.13c0-1.58-.33-3.84-1.03-7.12-.63-2.94-1.26-5.78-1.89-8.53-.64-2.77-1.28-5.33-1.92-7.68-.59-2.14-.75-2.95-.8-3.2v-.53l-.25-.68c-3.06-8.28-8.11-17.08-15.02-26.16-7.41-9.58-17.31-17.94-29.36-24.84-13.71-8.13-28.89-13.99-45.13-17.41-16.21-3.41-32.63-4.49-48.92-3.2-8.38.89-16.54,3.23-24.24,6.97-8.2,3.98-14.24,10.48-17.94,19.27-3.12,7.12-4.92,14.98-5.35,23.36-.45,8.5.91,16.45,4.04,23.66,2.65,7.47,6.76,14.68,12.22,21.44,5.43,6.74,11.93,12.8,19.23,17.95,3.48,2.61,7.06,5.03,10.71,7.24-14.06.6-27.53,3.27-40.11,7.96-14.42,5.38-27.09,12.93-37.66,22.42-10.58,9.5-19.12,20.66-25.38,33.19-6.32,12.64-9.52,26.33-9.52,40.7s3.2,28.16,9.51,40.98c6.26,12.76,14.8,24.04,25.39,33.53,10.58,9.5,23.25,17.05,37.66,22.42,14.38,5.37,29.94,8.1,46.26,8.1,18.02,0,35-3.27,50.48-9.72,12.89-5.37,24.28-12.48,33.96-21.17,1.63,6.46,4.52,11.79,8.63,15.91,5.36,5.36,11.28,9.45,17.55,12.14,7.12,3.12,15.41,4.92,24.83,5.36h194.69l-37.05-8.04c-8.81-1.91-15.87-6.09-21.6-12.78-5.67-6.61-8.43-14.25-8.43-23.38v-200.8c.8-3.24,1.51-6.4,2.12-9.42.79-3.94,1.18-4.86,1.22-4.94l.22-.53c1.56-4.71,3.56-9.21,5.94-13.37,2.4-4.2,5.23-8.35,8.42-12.33,12.74-15.92,29.49-26.41,49.67-31.16,8.14-1.62,16.49-2.65,24.8-3.06,8.13-.39,16.28.42,24.19,2.39,13.62,3.5,23.15,10.45,29.12,21.23,6.21,11.21,10.37,23.83,12.41,37.61,1.82,10.51,6.8,19.42,14.79,26.49,8.1,7.19,17.6,10.38,28.27,9.49ZM2041.83,545.66c-9.84,10.32-21.81,18.8-35.59,25.2-14.23,6.61-30.22,9.97-47.51,9.97-4.99,0-11.85-1.41-20.38-4.19-8.46-2.75-16.99-7.57-25.35-14.34-8.3-6.71-15.55-15.89-21.54-27.27-5.93-11.27-8.94-25.71-8.94-42.94s2.83-32.24,8.41-44.39c5.62-12.24,12.5-22.38,20.46-30.14,7.94-7.75,16.37-13.47,25.04-17.02,8.65-3.54,16.15-5.34,22.29-5.34,17.29,0,33.28,3.35,47.51,9.97,13.78,6.41,25.75,14.88,35.59,25.2v115.3ZM2001.23,278.48c12.06,2.34,21.62,8.3,29.21,18.23,7.56,9.88,11.39,21.18,11.39,33.59v82.89c-6.89-5.88-14.44-11.01-22.56-15.31-10.87-5.76-22.65-9.98-35-12.56-10.36-3.58-20.18-8.25-29.28-13.93l-5.76-4.23c-13.52-9.93-22.97-21.57-28.05-34.47-1.94-5.41-3.02-11.32-3.21-17.57-.19-6.08.87-12.07,3.19-17.88,2.25-5.99,5.57-10.5,10.17-13.81,4.62-3.33,10.21-5.4,16.68-6.17,17.46-2.44,35.37-2.02,53.22,1.22Z"/>
  <path class="cls-1" d="M2686.39,587.19c-8.81-1.91-15.87-6.09-21.6-12.78-5.67-6.61-8.43-14.26-8.43-23.38v-188.13c0-1.58-.33-3.84-1.03-7.12-.63-2.94-1.26-5.78-1.89-8.53-.64-2.77-1.28-5.33-1.92-7.68-.59-2.14-.75-2.95-.8-3.2v-.53l-.25-.68c-3.06-8.28-8.11-17.08-15.02-26.16-7.41-9.58-17.31-17.94-29.36-24.84-13.71-8.13-28.89-13.99-45.13-17.41-16.21-3.41-32.63-4.49-48.92-3.2-8.38.89-16.54,3.23-24.24,6.97-8.2,3.98-14.24,10.48-17.94,19.27-3.12,7.12-4.92,14.98-5.35,23.36-.45,8.5.91,16.45,4.04,23.66,2.65,7.47,6.76,14.68,12.22,21.44,5.43,6.74,11.93,12.8,19.23,17.95,3.48,2.61,7.06,5.03,10.71,7.24-14.06.6-27.53,3.27-40.11,7.96-14.42,5.38-27.09,12.93-37.66,22.42-10.58,9.5-19.12,20.66-25.38,33.19-6.32,12.64-9.52,26.33-9.52,40.7s3.2,28.16,9.51,40.98c6.26,12.76,14.8,24.04,25.39,33.53,10.58,9.5,23.25,17.05,37.66,22.42,14.38,5.37,29.94,8.1,46.26,8.1,18.02,0,35-3.27,50.48-9.72,12.89-5.37,24.28-12.48,33.96-21.17,1.63,6.46,4.52,11.79,8.63,15.91,5.36,5.36,11.28,9.45,17.55,12.14,7.12,3.12,15.41,4.92,24.83,5.36h71.17l-37.07-8.04ZM2599.93,545.66c-9.84,10.32-21.81,18.8-35.59,25.2-14.23,6.61-30.22,9.97-47.51,9.97-4.99,0-11.85-1.41-20.38-4.19-8.46-2.75-16.99-7.57-25.35-14.34-8.3-6.71-15.55-15.89-21.54-27.27-5.93-11.27-8.94-25.71-8.94-42.94s2.83-32.24,8.41-44.39c5.62-12.24,12.5-22.38,20.46-30.14,7.94-7.75,16.37-13.47,25.04-17.02,8.65-3.54,16.15-5.34,22.29-5.34,17.29,0,33.28,3.35,47.51,9.97,13.78,6.41,25.75,14.88,35.59,25.2v115.3ZM2559.33,278.48c12.06,2.34,21.62,8.3,29.21,18.23,7.56,9.88,11.39,21.18,11.39,33.59v82.89c-6.89-5.88-14.44-11.01-22.56-15.31-10.87-5.76-22.65-9.98-35-12.56-10.36-3.58-20.18-8.25-29.28-13.93l-5.76-4.23c-13.52-9.93-22.97-21.57-28.05-34.47-1.94-5.41-3.02-11.32-3.21-17.57-.19-6.08.87-12.07,3.19-17.88,2.25-5.99,5.57-10.5,10.17-13.81,4.62-3.33,10.21-5.4,16.68-6.17,17.46-2.44,35.37-2.02,53.22,1.22Z"/>
  <path class="cls-1" d="M659.25,569.64V29.88h60.79V0h-79.33c-51.5,0-93.4,18.54-125.67,55.63-43.26,49.44-75.19,107.81-95.79,175.11-13.75-2.73-24.39-4.13-31.94-4.13-59.08,0-110.91,18.21-155.55,54.6-44.66,36.42-66.95,83.79-66.95,142.15,0,46.71,11.32,88.59,33.99,125.67,22.67,37.09,54.93,66.28,96.83,87.57-19.93,44.62-43.28,79.98-70.06,106.08-26.78,26.1-60.77,39.15-101.97,39.15-24.72,0-46.53-7.56-65.41-22.67-18.89-15.1-28.32-34.67-28.32-58.71,0-14.41,4.11-26.94,12.35-37.59,8.24-10.67,19.58-17.34,33.99-20.1,0,14.43,4.3,27.83,12.89,40.18,8.57,12.37,19.73,18.56,33.48,18.56,8.92,0,16.48-3.27,22.67-9.8,6.17-6.54,9.27-14.26,9.27-23.16,0-15.82-7.56-29.2-22.67-40.18-15.1-10.99-30.91-16.48-47.39-16.48-24.04,0-44.12,8.75-60.25,26.26-16.13,17.51-24.21,38.27-24.21,62.31,0,32.96,12.7,59.76,38.12,80.35,25.4,20.61,55.26,30.91,89.6,30.91,42.72,0,82.63-16.09,114.59-44.23,60.77-53.51,89.54-133.27,113.48-208.84-1.07-2.88-2.22-5.73-3.45-8.57-4.38-10.11-9.74-19.09-15.99-27.02-10.42,34.05-20.22,62.62-29.39,85.72-32.96-16.48-59.93-40.69-80.87-72.61-13.91-21.23-23.2-43.42-27.87-66.63-.21-.95-.39-1.91-.55-2.88-1.99-10.79-2.98-21.78-2.98-33,0-50.8,17.32-93.03,52.01-126.7,34.67-33.64,77.76-50.47,129.26-50.47,15.1,0,26.43,1.03,33.99,3.08-5.84,18.52-15.04,50.99-27.6,97.43.72,3.04,1.52,6.08,2.38,9.1,3.9,13.73,9.25,25.91,16.01,36.62,18.66-68.66,31.34-113.97,38.06-135.94,47.39,15.8,83.44,42.6,108.16,80.35,24.72,37.77,37.07,82.06,37.07,132.88v89.62h-75.2v29.86h221.47v-29.86h-71.08ZM583.02,348.17c-31.59-54.93-76.57-91.33-134.94-109.19,35.7-106.43,80.68-172.03,134.94-196.75v305.94Z"/>
  <path class="cls-1" d="M521.25,468.08c-3.36.22-6.7.52-10.05.65-21.36.79-42.52,2.88-63.14,8.89-35.18,10.25-57.22,33.27-66.93,68.42-5.22,18.89-7.23,38.23-8.14,57.74-.22,4.73-.46,9.46-.63,12.64-1.14-13.55-2.13-28.63-3.78-43.63-1.4-12.64-4.19-25-8.68-36.88-.8-2.16-1.66-4.3-2.59-6.43-3.28-7.58-7.3-14.32-11.99-20.26-12.08-15.38-28.63-25.52-48.71-31.51-17.92-5.36-36.31-7.5-54.86-8.61-1.53-.08-3.07-.17-4.61-.25-4.61-.23-9.23-.42-13.82-1.08,5.99-.29,12-.49,18.01-.83,1.9-.09,3.81-.22,5.7-.35,16.92-1.2,33.64-3.51,49.98-8.37,36.43-10.8,58.05-35.37,67.19-71.72,4.75-18.88,6.55-38.14,7.34-57.51.14-3.3.02-6.58.69-9.91.2,2.73.51,5.47.6,8.2.66,19.39,2.37,38.59,7,57.43.54,2.28,1.14,4.56,1.79,6.83,2.93,10.29,6.93,19.43,12,27.46,13.18,20.94,33.46,34.36,60.18,41.05,18.77,4.72,37.89,6.52,57.16,7.3,3.41.14,6.83.02,10.28.72Z"/>
  <g>
    <path class="cls-1" d="M565.87,674.66c8.91,4.52,15.73,11.04,20.46,19.55,4.72,8.51,7.09,18.63,7.09,30.37s-2.36,21.68-7.09,30.13c-4.73,8.46-11.55,14.92-20.46,19.39-8.92,4.47-19.6,6.7-32.06,6.7h-33.35v-112.93h33.35c12.46,0,23.14,2.26,32.06,6.79ZM569.65,759.08c8.22-8.24,12.33-19.73,12.33-34.49s-4.11-26.47-12.33-34.82c-8.22-8.35-20.17-12.52-35.85-12.52h-22.07v94.19h22.07c15.68,0,27.63-4.12,35.85-12.36Z"/>
    <path class="cls-1" d="M736.81,741.06h-72.99c.32,6.68,1.93,12.39,4.83,17.12,2.9,4.74,6.71,8.32,11.44,10.75,4.72,2.42,9.88,3.63,15.47,3.63,7.3,0,13.45-1.78,18.45-5.33,4.99-3.55,8.3-8.35,9.91-14.38h11.92c-2.15,8.62-6.74,15.65-13.77,21.08-7.04,5.44-15.87,8.16-26.5,8.16-8.27,0-15.68-1.86-22.23-5.57-6.55-3.72-11.68-8.99-15.39-15.83-3.71-6.84-5.56-14.84-5.56-23.99s1.83-17.18,5.48-24.07c3.65-6.89,8.75-12.17,15.31-15.83,6.55-3.66,14.02-5.49,22.4-5.49s15.71,1.83,21.99,5.49c6.28,3.66,11.12,8.59,14.5,14.78,3.38,6.19,5.08,13.06,5.08,20.6,0,3.88-.11,6.84-.32,8.89ZM721.75,715.05c-2.74-4.63-6.47-8.13-11.2-10.5-4.73-2.37-9.88-3.55-15.47-3.55-8.38,0-15.52,2.69-21.43,8.08-5.91,5.39-9.18,12.98-9.83,22.78h61.87c.11-6.57-1.21-12.17-3.95-16.8Z"/>
    <path class="cls-1" d="M806.65,775.07c-6.39-4.69-9.96-11.07-10.71-19.15h11.6c.54,4.96,2.87,8.97,7.01,12.04,4.13,3.07,9.69,4.6,16.68,4.6,6.12,0,10.93-1.46,14.42-4.36,3.49-2.91,5.24-6.52,5.24-10.82,0-3.01-.97-5.49-2.9-7.43-1.93-1.94-4.38-3.47-7.33-4.6-2.96-1.13-6.96-2.34-12-3.63-6.55-1.72-11.87-3.45-15.95-5.17-4.08-1.72-7.55-4.28-10.39-7.68-2.85-3.39-4.27-7.94-4.27-13.65,0-4.31,1.29-8.29,3.87-11.96,2.58-3.66,6.23-6.57,10.96-8.72,4.73-2.15,10.1-3.23,16.11-3.23,9.45,0,17.08,2.4,22.88,7.19,5.8,4.79,8.91,11.39,9.34,19.79h-11.28c-.32-5.17-2.34-9.34-6.04-12.52-3.71-3.17-8.78-4.76-15.23-4.76-5.69,0-10.31,1.35-13.86,4.04-3.54,2.69-5.32,6.03-5.32,10.02,0,3.45,1.05,6.28,3.14,8.48,2.09,2.21,4.7,3.93,7.81,5.17,3.11,1.24,7.3,2.61,12.57,4.12,6.34,1.72,11.38,3.39,15.15,5.01,3.76,1.62,6.98,3.99,9.67,7.11,2.68,3.13,4.08,7.27,4.19,12.44,0,4.74-1.29,8.97-3.87,12.68-2.58,3.72-6.18,6.65-10.79,8.8-4.62,2.15-9.94,3.23-15.95,3.23-10.1,0-18.34-2.34-24.73-7.03Z"/>
    <path class="cls-1" d="M926.44,673.53c-1.61-1.62-2.42-3.61-2.42-5.98s.8-4.33,2.42-5.9c1.61-1.56,3.54-2.34,5.8-2.34s4.19.78,5.8,2.34c1.61,1.56,2.42,3.53,2.42,5.9s-.81,4.36-2.42,5.98c-1.61,1.62-3.54,2.42-5.8,2.42s-4.19-.81-5.8-2.42ZM937.88,692.59v88.21h-11.28v-88.21h11.28Z"/>
    <path class="cls-1" d="M1065.32,697.12c6.12,3.88,10.53,8.78,13.21,14.7v-19.23h11.28v90.47c0,8.08-1.75,15.24-5.24,21.49-3.49,6.25-8.35,11.07-14.58,14.46-6.23,3.39-13.32,5.09-21.27,5.09-11.28,0-20.65-2.69-28.11-8.08-7.47-5.39-12.11-12.71-13.94-21.97h11.12c1.93,6.14,5.61,11.04,11.04,14.7,5.42,3.66,12.06,5.49,19.9,5.49,5.69,0,10.79-1.21,15.31-3.64,4.51-2.42,8.06-6,10.63-10.74,2.58-4.74,3.87-10.34,3.87-16.8v-21.81c-2.79,6.03-7.23,11.02-13.29,14.95-6.07,3.93-13.24,5.9-21.51,5.9s-15.28-1.88-21.67-5.66c-6.39-3.77-11.39-9.1-14.98-15.99-3.6-6.89-5.4-14.86-5.4-23.91s1.8-16.99,5.4-23.83c3.6-6.84,8.59-12.12,14.98-15.83,6.39-3.72,13.61-5.57,21.67-5.57s15.47,1.94,21.59,5.82ZM1074.19,717.96c-2.9-5.39-6.85-9.53-11.84-12.44-4.99-2.91-10.5-4.36-16.51-4.36s-11.82,1.4-16.76,4.2c-4.94,2.8-8.84,6.86-11.68,12.2-2.85,5.33-4.27,11.66-4.27,18.98s1.42,13.55,4.27,18.98c2.85,5.44,6.74,9.59,11.68,12.44,4.94,2.85,10.52,4.28,16.76,4.28s11.52-1.46,16.51-4.36c4.99-2.91,8.94-7.05,11.84-12.44,2.9-5.38,4.35-11.63,4.35-18.74s-1.45-13.35-4.35-18.74Z"/>
    <path class="cls-1" d="M1225.95,700.75c6.66,6.52,9.99,15.97,9.99,28.35v51.7h-11.12v-50.41c0-9.58-2.39-16.91-7.17-21.97-4.78-5.06-11.31-7.59-19.58-7.59s-15.25,2.69-20.3,8.08c-5.05,5.39-7.57,13.3-7.57,23.75v48.15h-11.28v-88.21h11.28v15.02c2.79-5.38,6.82-9.5,12.08-12.36,5.26-2.85,11.22-4.28,17.88-4.28,10.53,0,19.12,3.26,25.78,9.78Z"/>
    <path class="cls-1" d="M1457.64,667.88v9.37h-31.26v103.56h-11.28v-103.56h-31.42v-9.37h73.95Z"/>
    <path class="cls-1" d="M1578.71,695.18c5.32,2.8,9.5,7.08,12.57,12.84,3.06,5.76,4.59,12.79,4.59,21.08v51.7h-11.12v-50.41c0-9.58-2.39-16.91-7.17-21.97-4.78-5.06-11.31-7.59-19.58-7.59s-15.25,2.69-20.3,8.08c-5.05,5.39-7.57,13.3-7.57,23.75v48.15h-11.28v-119.55h11.28v46.37c2.79-5.27,6.9-9.37,12.33-12.28,5.42-2.91,11.52-4.36,18.29-4.36s12.65,1.4,17.96,4.2Z"/>
    <path class="cls-1" d="M1664.43,712.71c3.6-6.84,8.59-12.12,14.98-15.83,6.39-3.72,13.61-5.57,21.67-5.57s15.6,1.94,21.67,5.82c6.07,3.88,10.44,8.83,13.13,14.86v-19.39h11.28v88.21h-11.28v-19.55c-2.79,6.03-7.23,11.02-13.29,14.95-6.07,3.93-13.29,5.9-21.67,5.9s-15.12-1.88-21.51-5.66c-6.39-3.77-11.39-9.1-14.98-15.99-3.6-6.89-5.4-14.86-5.4-23.91s1.8-16.99,5.4-23.83ZM1731.53,717.96c-2.9-5.39-6.85-9.53-11.84-12.44-4.99-2.91-10.5-4.36-16.51-4.36s-11.82,1.4-16.76,4.2c-4.94,2.8-8.84,6.86-11.68,12.2-2.85,5.33-4.27,11.66-4.27,18.98s1.42,13.55,4.27,18.98c2.85,5.44,6.74,9.59,11.68,12.44,4.94,2.85,10.53,4.28,16.76,4.28s11.52-1.46,16.51-4.36c4.99-2.91,8.94-7.05,11.84-12.44,2.9-5.38,4.35-11.63,4.35-18.74s-1.45-13.35-4.35-18.74Z"/>
    <path class="cls-1" d="M1830.94,702.13v54.77c0,5.39,1.02,9.1,3.06,11.15,2.04,2.05,5.64,3.07,10.8,3.07h10.31v9.69h-12.08c-7.95,0-13.86-1.86-17.72-5.57-3.87-3.72-5.8-9.83-5.8-18.34v-54.77h-12.25v-9.53h12.25v-22.13h11.44v22.13h24.17v9.53h-24.17Z"/>
    <path class="cls-1" d="M2019.04,778.06c-5.64-2.59-10.07-6.19-13.29-10.82-3.22-4.63-4.94-9.8-5.16-15.51h11.92c.54,5.49,2.95,10.32,7.25,14.46,4.29,4.15,10.58,6.22,18.85,6.22,7.63,0,13.67-1.96,18.13-5.9,4.45-3.93,6.69-8.91,6.69-14.94,0-4.85-1.24-8.75-3.7-11.71-2.47-2.96-5.54-5.17-9.18-6.63-3.65-1.45-8.7-3.04-15.15-4.76-7.52-2.05-13.48-4.04-17.88-5.98-4.41-1.94-8.16-4.95-11.28-9.05-3.12-4.09-4.67-9.64-4.67-16.64,0-5.82,1.5-11.01,4.51-15.59,3.01-4.58,7.25-8.16,12.73-10.74,5.48-2.59,11.76-3.88,18.85-3.88,10.42,0,18.82,2.56,25.21,7.67,6.39,5.12,10.07,11.71,11.04,19.79h-12.24c-.75-4.63-3.28-8.75-7.57-12.36-4.3-3.61-10.1-5.41-17.4-5.41-6.77,0-12.41,1.8-16.92,5.41-4.51,3.61-6.77,8.54-6.77,14.78,0,4.74,1.23,8.56,3.71,11.47,2.47,2.91,5.56,5.12,9.26,6.63,3.71,1.51,8.72,3.13,15.06,4.85,7.3,2.05,13.21,4.07,17.72,6.06,4.51,1.99,8.32,5.04,11.44,9.13,3.11,4.09,4.67,9.59,4.67,16.48,0,5.28-1.4,10.29-4.19,15.03-2.79,4.74-6.93,8.56-12.41,11.47-5.48,2.91-12.03,4.36-19.66,4.36s-13.94-1.29-19.58-3.88Z"/>
    <path class="cls-1" d="M2199.81,695.18c5.32,2.8,9.5,7.08,12.57,12.84,3.06,5.76,4.59,12.79,4.59,21.08v51.7h-11.12v-50.41c0-9.58-2.39-16.91-7.17-21.97-4.78-5.06-11.31-7.59-19.58-7.59s-15.25,2.69-20.3,8.08c-5.05,5.39-7.57,13.3-7.57,23.75v48.15h-11.28v-119.55h11.28v46.37c2.79-5.27,6.9-9.37,12.33-12.28,5.42-2.91,11.52-4.36,18.29-4.36s12.65,1.4,17.96,4.2Z"/>
    <path class="cls-1" d="M2285.12,673.53c-1.61-1.62-2.42-3.61-2.42-5.98s.81-4.33,2.42-5.9c1.61-1.56,3.54-2.34,5.8-2.34s4.19.78,5.8,2.34c1.61,1.56,2.42,3.53,2.42,5.9s-.81,4.36-2.42,5.98c-1.61,1.62-3.54,2.42-5.8,2.42s-4.19-.81-5.8-2.42ZM2296.56,692.59v88.21h-11.28v-88.21h11.28Z"/>
    <path class="cls-1" d="M2432.54,700.75c6.66,6.52,9.99,15.97,9.99,28.35v51.7h-11.12v-50.41c0-9.58-2.39-16.91-7.17-21.97-4.78-5.06-11.31-7.59-19.58-7.59s-15.25,2.69-20.3,8.08c-5.05,5.39-7.57,13.3-7.57,23.75v48.15h-11.28v-88.21h11.28v15.02c2.79-5.38,6.82-9.5,12.08-12.36,5.26-2.85,11.22-4.28,17.89-4.28,10.52,0,19.12,3.26,25.78,9.78Z"/>
    <path class="cls-1" d="M2590.11,741.06h-72.98c.32,6.68,1.93,12.39,4.83,17.12,2.9,4.74,6.71,8.32,11.44,10.75,4.72,2.42,9.88,3.63,15.47,3.63,7.3,0,13.45-1.78,18.45-5.33,4.99-3.55,8.3-8.35,9.91-14.38h11.92c-2.15,8.62-6.74,15.65-13.78,21.08-7.04,5.44-15.87,8.16-26.5,8.16-8.27,0-15.68-1.86-22.23-5.57-6.55-3.72-11.68-8.99-15.39-15.83-3.71-6.84-5.56-14.84-5.56-23.99s1.82-17.18,5.48-24.07c3.65-6.89,8.75-12.17,15.31-15.83,6.55-3.66,14.02-5.49,22.4-5.49s15.71,1.83,21.99,5.49c6.28,3.66,11.12,8.59,14.5,14.78,3.38,6.19,5.08,13.06,5.08,20.6,0,3.88-.11,6.84-.32,8.89ZM2575.04,715.05c-2.74-4.63-6.47-8.13-11.2-10.5-4.73-2.37-9.88-3.55-15.47-3.55-8.38,0-15.52,2.69-21.43,8.08-5.91,5.39-9.18,12.98-9.83,22.78h61.87c.11-6.57-1.21-12.17-3.95-16.8Z"/>
    <path class="cls-1" d="M2659.95,775.07c-6.39-4.69-9.96-11.07-10.71-19.15h11.6c.54,4.96,2.87,8.97,7.01,12.04,4.13,3.07,9.69,4.6,16.68,4.6,6.12,0,10.93-1.46,14.42-4.36,3.49-2.91,5.24-6.52,5.24-10.82,0-3.01-.97-5.49-2.9-7.43-1.94-1.94-4.38-3.47-7.33-4.6-2.96-1.13-6.96-2.34-12-3.63-6.55-1.72-11.87-3.45-15.95-5.17-4.08-1.72-7.55-4.28-10.39-7.68-2.85-3.39-4.27-7.94-4.27-13.65,0-4.31,1.29-8.29,3.87-11.96,2.58-3.66,6.23-6.57,10.96-8.72,4.72-2.15,10.09-3.23,16.11-3.23,9.45,0,17.08,2.4,22.88,7.19,5.8,4.79,8.91,11.39,9.35,19.79h-11.28c-.32-5.17-2.34-9.34-6.04-12.52-3.7-3.17-8.78-4.76-15.22-4.76-5.69,0-10.31,1.35-13.86,4.04-3.54,2.69-5.32,6.03-5.32,10.02,0,3.45,1.05,6.28,3.14,8.48,2.09,2.21,4.7,3.93,7.81,5.17,3.11,1.24,7.3,2.61,12.57,4.12,6.34,1.72,11.38,3.39,15.14,5.01,3.76,1.62,6.98,3.99,9.67,7.11,2.69,3.13,4.08,7.27,4.19,12.44,0,4.74-1.29,8.97-3.87,12.68-2.58,3.72-6.18,6.65-10.8,8.8-4.62,2.15-9.93,3.23-15.95,3.23-10.1,0-18.34-2.34-24.73-7.03Z"/>
  </g>
  <path class="cls-1" d="M2737.09,275.7v9.36h-18.1v47.21h-11.23v-47.21h-18.1v-9.36h47.43ZM2798.22,332.27l-2.08-33.27c-.2-4.37-.2-9.78-.41-15.81h-.63c-1.46,5-3.12,11.65-4.78,16.85l-10.19,31.4h-11.65l-10.19-32.24c-1.03-4.36-2.69-11.01-3.95-16.01h-.63c0,5.2-.2,10.61-.42,15.81l-2.07,33.27h-10.82l4.17-56.57h16.83l9.79,27.66c1.24,4.37,2.29,8.53,3.74,14.34h.2c1.46-5.2,2.71-9.97,3.95-14.14l9.79-27.86h16.22l4.35,56.57h-11.23Z"/>
</svg>